<svg xmlns="http://www.w3.org/2000/svg" viewBox="0 0 405.5 202.8"><title>Asset 3</title><g id="Layer_2" data-name="Layer 2"><g id="Layer_1-2" data-name="Layer 1"><path d="M33.53,80.68,33.63,20A18,18,0,0,1,51.58,2H330.76a18,18,0,0,1,17.95,18v162.9a18,18,0,0,1-17.95,18H51.58a18,18,0,0,1-17.95-18l-.22-58.95" fill="none" stroke="#fff" stroke-miterlimit="10" stroke-width="4"/><path d="M59.25,200.13c0-19.44,13.52-20.58,13.52-20.58H287.06a10.43,10.43,0,0,0,10.39-10.39V33.65a10.42,10.42,0,0,0-10.39-10.39H72.77S56.26,19.13,59.25,2.67" fill="none" stroke="#fff" stroke-miterlimit="10" stroke-width="4"/><path d="M348.94,75.22h50a4.55,4.55,0,0,1,4.53,4.54v40.29a4.55,4.55,0,0,1-4.53,4.54h-50" fill="none" stroke="#fff" stroke-miterlimit="10" stroke-width="4"/><path d="M35.39,125.9h-27c-3.54,0-6.43-3.28-6.43-7.28V86.52c0-4,2.89-7.28,6.43-7.28H35.54" fill="none" stroke="#fff" stroke-miterlimit="10" stroke-width="4"/><path d="M30.89,89.24V115.9H16.3a3,3,0,0,1-3-3V92.27a3,3,0,0,1,3-3H30.89m4-4H16.3a7,7,0,0,0-7,7v20.6a7,7,0,0,0,7,7H34.89V85.24Z" fill="#fff"/><path d="M278.19,155.75a6,6,0,1,1-6,6,6.06,6.06,0,0,1,6-6m0-4a10,10,0,1,0,10.05,10,10,10,0,0,0-10.05-10Z" fill="#fff"/><line x1="72.71" y1="179.94" x2="72.71" y2="22.86" fill="#fff" stroke="#fff" stroke-miterlimit="10" stroke-width="4"/></g></g></svg>